<?xml version="1.0" encoding="UTF-8"?><svg id="a" xmlns="http://www.w3.org/2000/svg" xmlns:xlink="http://www.w3.org/1999/xlink" viewBox="0 0 16 16"><defs><style>.d{fill:url(#b);}.e{fill:#fff;}.f{fill:#231f20;}</style><linearGradient id="b" x1=".68" y1="12.47" x2="16.12" y2="7.51" gradientTransform="translate(0 18) scale(1 -1)" gradientUnits="userSpaceOnUse"><stop offset="0" stop-color="#08a8dd"/><stop offset=".17" stop-color="#35368f"/><stop offset=".4" stop-color="#e71788"/><stop offset=".6" stop-color="#ea2f30"/><stop offset=".81" stop-color="#fbe727"/><stop offset="1" stop-color="#049d54"/></linearGradient></defs><g><path class="e" d="m6.61,12.58s-.54.76-1.21.76-1.21-.76-1.21-.76c0,0,.54-.7,1.21-.7s1.21.7,1.21.7"/><path class="e" d="m9.33,12.58s.54.76,1.21.76,1.21-.76,1.21-.76c0,0-.54-.7-1.21-.7s-1.21.7-1.21.7"/><path class="f" d="m9.79,12.29c0-.06,0-.11.02-.17.17-.2.43-.32.71-.32.3,0,.57.14.74.35,0,.04.01.09.01.13,0,.41-.33.74-.74.74s-.74-.33-.74-.74"/><path class="f" d="m11.78,12.64s-.37-.57-1.12-.72c-.75-.14-1.33.66-1.33.66,0,0,.47-.82,1-.96.17-.04.38-.02.38-.02,0,0,.31-.13.36-.1.05.03-.06.17-.06.17,0,0,.35-.14.37-.09s-.1.22-.1.22c0,0,.44-.27.47-.2s-.19.31-.19.31c0,0,.71-.34.74-.21s-.5.52-.5.52c0,0,.91-.36.93-.22s-.97.7-.97.7v-.06s.01,0,.01,0Z"/><path class="e" d="m10.31,12.29c0,.11-.09.19-.19.19s-.19-.09-.19-.19.09-.19.19-.19.19.09.19.19"/><path class="f" d="m4.16,12.64s.37-.57,1.12-.72c.75-.14,1.33.66,1.33.66,0,0-.47-.82-1-.96-.17-.04-.38-.02-.38-.02,0,0-.31-.13-.36-.1-.05.03.06.17.06.17,0,0-.35-.14-.37-.09s.1.22.1.22c0,0-.44-.27-.47-.2s.19.31.19.31c0,0-.71-.34-.74-.21s.5.52.5.52c0,0-.91-.36-.93-.22s.97.7.97.7v-.06s0,0,0,0Z"/><path class="f" d="m6.14,12.29c0-.06,0-.11-.02-.17-.17-.2-.43-.32-.71-.32-.3,0-.57.14-.74.35,0,.04-.01.09-.01.13,0,.41.33.74.74.74s.74-.33.74-.74"/><path class="e" d="m5.17,12.29c0,.11-.09.19-.19.19s-.19-.09-.19-.19.09-.19.19-.19.19.09.19.19"/></g><path class="d" d="m15.95,9.38s-.2-.08-.52-.28c.06-.38.09-.76.09-1.16C15.52,3.77,12.14.39,7.97.39S.41,3.77.41,7.94c0,.8.13,1.57.36,2.3-.17.32-.4.57-.72.72.35.02.68,0,.97-.05.67,1.56,1.84,2.85,3.32,3.66-.82-1.08-1.65-3.25-1.98-4.16,1.08-.68,1.47-1.73,1.47-1.73,0,0,1.91,1.47,4.84,2.29,1.78.5,3.49.19,4.8-.29-.38,1.02-1.14,2.91-1.89,3.89,1.81-.99,3.17-2.7,3.69-4.75.42-.25.67-.44.67-.44h0Z"/><g id="c"><path d="m5.13,10.95c.37.03.74.05,1.11.08.4.03.78.13,1.17.21.24.05.48.06.72.04.18-.01.36-.04.54-.08.33-.07.66-.15.99-.21.15-.03.31-.04.46-.05.31-.02.62-.05.93-.04.29,0,.59.03.88.06.34.04.67.1,1,.15.14.02.14.03.15.17,0,.12,0,.24,0,.36,0,.05-.01.09-.05.11-.11.08-.16.19-.18.32-.09.52-.22,1.02-.42,1.51-.16.39-.45.64-.83.79-.51.2-1.04.23-1.58.09-.3-.08-.58-.21-.8-.42-.12-.11-.22-.25-.31-.39-.22-.35-.36-.73-.46-1.13-.03-.13-.07-.26-.17-.36-.21-.2-.56-.12-.65.15-.06.18-.1.36-.15.54-.12.37-.26.73-.49,1.04-.12.17-.28.3-.46.41-.36.21-.74.29-1.16.3-.31,0-.62-.04-.91-.15-.29-.11-.55-.28-.73-.55-.1-.15-.18-.32-.23-.49-.09-.29-.18-.58-.26-.87-.04-.14-.07-.28-.09-.42-.02-.11-.08-.19-.17-.26-.06-.04-.07-.09-.07-.15,0-.13,0-.25,0-.38,0-.09,0-.1.09-.11.39-.07.78-.14,1.17-.2.31-.04.63-.06.95-.09Zm5.52,3.42c.16-.02.32-.03.48-.06.25-.04.47-.14.67-.28.29-.21.43-.51.5-.84.05-.24.09-.48.12-.72.03-.22.05-.44-.01-.66-.07-.25-.21-.43-.47-.5-.16-.04-.33-.08-.5-.1-.26-.03-.52-.05-.78-.04-.26,0-.51.03-.77.07-.26.03-.52.09-.76.19-.14.06-.26.15-.34.28-.12.18-.11.37-.09.57.04.29.11.56.2.84.11.32.25.61.51.83.16.14.33.24.53.31.23.08.47.11.71.11Zm-5.24.05c.12-.01.24-.02.35-.04.43-.05.77-.26,1.04-.58.15-.18.23-.38.3-.6.11-.33.19-.66.22-1,.01-.15,0-.31-.09-.45-.1-.15-.23-.26-.4-.32-.51-.17-1.03-.21-1.56-.21-.4,0-.79.05-1.18.16-.26.07-.47.28-.5.55-.01.13-.01.27,0,.4,0,.1,0,.21.02.31.03.19.07.38.11.56.06.28.15.55.36.76.18.18.39.3.63.37.23.07.46.09.7.09Z"/></g></svg>