<?xml version="1.0" encoding="UTF-8"?><svg id="a" xmlns="http://www.w3.org/2000/svg" viewBox="0 0 2611 907"><defs><style>.b{fill:#ffc708;}.c{fill:none;stroke:#e0dfde;stroke-miterlimit:10;stroke-width:4px;}</style></defs><path class="b" d="m2393.02,337.3c256.69,89.56,294.86-316.34,6.68-289.1-116.77,11.04-209.5-106.59-245.7,25.8-49.2,179.9,130.65,225.49,239.02,263.3Z"/><g><path class="b" d="m761.56,1460.61c-248.07-8.44-752.56-40.97-764.32-376.95-13.3-54.88-25.39-107.14,1.58-164.67,36.47-77.81,120.1-112.57,199.29-127.9,10.95-2.12,21.9-3.77,32.86-5.1,44.93-9.77,92.55-9.82,139.26,1.86,1.17.29,2.34.67,3.52.97,105.07,15.54,207.32,57.94,300.04,107.15,136.82,72.62,278.79,165,361.81,299.8,44.76,72.69,55.7,169.25-20.98,227.08-70.7,53.33-170.14,40.56-253.06,37.74Z"/><g><path class="b" d="m197.91,697.58c-2-5.96-24.27-.81-21.56,7.24,2.7,8.05,23.56-1.28,21.56-7.24Z"/><path class="b" d="m11.86,852.04c5.54,2.96,18.19-16.07,10.71-20.07-7.49-3.99-16.25,17.11-10.71,20.07Z"/><path class="b" d="m457.58,779.64c.35-6.27-22.24-9.72-22.71-1.25-.47,8.48,22.37,7.53,22.71,1.25Z"/><path class="b" d="m682.87,869.41c-.85-6.22-23.68-5.33-22.53,3.08,1.15,8.41,23.38,3.15,22.53-3.08Z"/><path class="b" d="m326.09,799.13c4.4-4.48-10.27-22-16.22-15.95-5.95,6.05,11.82,20.43,16.22,15.95Z"/><path class="b" d="m505.33,847.15c-3.28,5.36,14.96,19.12,19.4,11.88,4.43-7.24-16.11-17.24-19.4-11.88Z"/><path class="b" d="m124.05,721.71c4.05,4.8,22.86-8.16,17.4-14.65-5.47-6.49-21.44,9.85-17.4,14.65Z"/><path class="b" d="m358.99,891.14c-5.3-3.37-19.36,14.65-12.19,19.2,7.17,4.55,17.5-15.83,12.19-19.2Z"/><path class="b" d="m530.26,727.62c4.16,4.71,22.67-8.69,17.05-15.05-5.62-6.36-21.21,10.34-17.05,15.05Z"/><path class="b" d="m530.93,925.8c5.24-3.47-5.48-23.65-12.56-18.96-7.08,4.68,7.32,22.43,12.56,18.96Z"/><path class="b" d="m632.68,911.67c4.51-4.37-9.74-22.24-15.84-16.33-6.09,5.91,11.33,20.7,15.84,16.33Z"/><path class="b" d="m458.44,868.59c-6.15-1.28-12.94,20.55-4.63,22.27,8.31,1.73,10.78-20.99,4.63-22.27Z"/><path class="b" d="m575.1,761.44c1.11,6.18,23.89,4.32,22.38-4.03-1.5-8.35-23.5-2.15-22.38,4.03Z"/><path class="b" d="m238.4,758.01c.24-6.28-22.41-9.35-22.73-.87-.33,8.48,22.49,7.15,22.73.87Z"/><path class="b" d="m341.99,851.78c5.32,3.35,19.29-14.73,12.11-19.25-7.18-4.52-17.43,15.91-12.11,19.25Z"/><path class="b" d="m420.09,738.93c5.53-2.98-3.32-24.05-10.79-20.02-7.47,4.03,5.26,23,10.79,20.02Z"/><path class="b" d="m86.51,886.89c6.28.18,9.13-22.5.65-22.74-8.48-.24-6.93,22.56-.65,22.74Z"/><path class="b" d="m459.88,702.32c6.24.73,11.06-21.61,2.63-22.59-8.43-.98-8.87,21.87-2.63,22.59Z"/><path class="b" d="m137.95,810.57c-4.74,4.13,8.55,22.72,14.95,17.14,6.4-5.58-10.21-21.27-14.95-17.14Z"/><path class="b" d="m415.01,817.29c-1.06-6.19-23.86-4.51-22.42,3.85,1.44,8.36,23.48,2.34,22.42-3.85Z"/><path class="b" d="m386.58,668.18c-6.28-.13-8.95,22.57-.47,22.74,8.49.17,6.75-22.61.47-22.74Z"/><path class="b" d="m285.3,856.49c-3.55,5.19,13.99,19.84,18.78,12.83,4.79-7.01-15.24-18.02-18.78-12.83Z"/><path class="b" d="m490.13,749.68c5.59-2.86-2.79-24.12-10.34-20.25-7.56,3.86,4.75,23.11,10.34,20.25Z"/><path class="b" d="m738.18,864.95c6.11-1.44,3.04-24.09-5.22-22.14-8.26,1.95-.89,23.58,5.22,22.14Z"/><path class="b" d="m62.75,733.06c-.24,6.28,22.41,9.34,22.73.86.32-8.48-22.49-7.14-22.73-.86Z"/><path class="b" d="m530.58,792.81c5.81-2.39-.78-24.26-8.64-21.04-7.85,3.22,2.82,23.43,8.64,21.04Z"/><path class="b" d="m793.89,901.7c-2.06-5.93-24.27-.55-21.48,7.47,2.79,8.02,23.55-1.53,21.48-7.47Z"/><path class="b" d="m44.67,896.01c1.48-6.11-20.11-13.6-22.11-5.35-2,8.25,20.63,11.45,22.11,5.35Z"/><path class="b" d="m639.2,772.85c-5.09-3.68-20.2,13.47-13.32,18.44,6.88,4.97,18.41-14.76,13.32-18.44Z"/><path class="b" d="m730.16,896.82c-4.56-4.32-21.81,10.68-15.64,16.51,6.16,5.84,20.2-12.19,15.64-16.51Z"/><path class="b" d="m133.98,866.74c-4.05,4.8,11.93,21.15,17.4,14.66,5.47-6.49-13.35-19.46-17.4-14.66Z"/><path class="b" d="m235.37,675.84c-6.2,1.01-4.71,23.82,3.67,22.45,8.38-1.37,2.53-23.46-3.67-22.45Z"/><path class="b" d="m391.49,883.05c-.54,6.26,21.93,10.42,22.66,1.96.73-8.45-22.12-8.22-22.66-1.96Z"/><path class="b" d="m355.24,726.3c1.64-6.07-19.74-14.13-21.96-5.93-2.21,8.19,20.32,12,21.96,5.93Z"/><path class="b" d="m560.54,818.41c-5.26,3.44,5.35,23.68,12.46,19.04,7.1-4.65-7.2-22.47-12.46-19.04Z"/><path class="b" d="m105.39,787.31c6.14,1.36,13.21-20.37,4.93-22.21-8.29-1.84-11.06,20.85-4.93,22.21Z"/><path class="b" d="m202.78,811.8c-6.19,1.07-4.5,23.86,3.86,22.42,8.37-1.44,2.33-23.48-3.86-22.42Z"/><path class="b" d="m614.54,830.95c-5.62,2.82,2.62,24.13,10.21,20.33,7.59-3.81-4.59-23.15-10.21-20.33Z"/><path class="b" d="m85.09,817.73c-2.12-5.92-24.27-.31-21.41,7.68,2.86,7.99,23.53-1.76,21.41-7.68Z"/><path class="b" d="m678.86,802.28c-5.01,3.79,6.97,23.26,13.73,18.13,6.76-5.13-8.73-21.93-13.73-18.13Z"/><path class="b" d="m469.82,835.41c6.02,1.79,14.63-19.38,6.49-21.8-8.14-2.42-12.51,20.01-6.49,21.8Z"/><path class="b" d="m250.65,867c5.05-3.74-6.71-23.33-13.54-18.28-6.82,5.05,8.49,22.02,13.54,18.28Z"/><path class="b" d="m161.15,761.31c-2.14,5.91,18.48,15.74,21.38,7.76,2.9-7.98-19.24-13.67-21.38-7.76Z"/><path class="b" d="m281.35,792.11c2.96-5.54-16.05-18.21-20.05-10.73-4.01,7.48,17.09,16.27,20.05,10.73Z"/><path class="b" d="m370.01,782.55c6.28.03,8.6-22.7.11-22.75-8.49-.04-6.4,22.71-.11,22.75Z"/><path class="b" d="m272.53,719.79c-.97,6.21,21.16,11.91,22.47,3.52,1.31-8.38-21.5-9.73-22.47-3.52Z"/><path class="b" d="m197.93,900.36c6.26-.56,6.43-23.41-2.03-22.65-8.45.75-4.23,23.22,2.03,22.65Z"/><path class="b" d="m315.06,663.63c-5.86-2.25-16.08,18.19-8.15,21.23,7.92,3.04,14.02-18.98,8.15-21.23Z"/><path class="b" d="m31.87,758.46c-6.27.34-7.23,23.17,1.25,22.71,8.47-.47,5.03-23.06-1.25-22.71Z"/><path class="b" d="m559.16,890.78c-.77,6.24,21.53,11.22,22.57,2.8,1.04-8.42-21.8-9.03-22.57-2.8Z"/></g></g><path class="c" d="m2365,322c240,168,319.48-298.3,31.3-271.06-116.77,11.04-306.01-62.3-283.3,73.06,26,155,157.97,132.18,252,198Z"/></svg>